<svg width="72" height="36" viewBox="0 0 72 36" fill="none" xmlns="http://www.w3.org/2000/svg">
<mask id="mask0_208_65" style="mask-type:luminance" maskUnits="userSpaceOnUse" x="12" y="0" width="60" height="36">
<path d="M72 0H12V36H72V0Z" fill="white"/>
</mask>
<g mask="url(#mask0_208_65)">
<path fill-rule="evenodd" clip-rule="evenodd" d="M51.7626 11.9901C50.3489 9.04053 47.4017 7.00781 43.4702 7.00781C37.8555 7.00781 34.3535 11.1537 34.3535 16.1951C34.3535 19.4135 35.733 22.2439 38.2006 23.8846C38.3412 23.7794 38.4258 23.7111 38.4258 23.7111C39.6566 22.908 40.8573 22.0627 42.0258 21.1768C39.8244 20.529 38.7127 18.4226 38.7127 16.1951C38.7127 13.5501 40.3601 10.9753 43.5021 10.9753C46.269 10.9753 48.0793 13.2689 48.274 15.7504C49.4868 14.5467 50.6507 13.2923 51.7626 11.9901ZM43.0601 25.3739C46.5418 22.906 49.7611 20.0869 52.6652 16.9633C52.3328 21.6798 48.9335 25.3823 43.5052 25.3823C43.3553 25.3823 43.2069 25.3794 43.0601 25.3739Z" fill="#22D3EE"/>
<path d="M55.3179 4.53767C50.8631 2.89971 47.6607 6.42419 47.6607 6.42419L50.6974 8.18961C51.835 7.53634 52.3417 8.17049 52.4723 8.51784C52.5648 8.76321 52.4405 9.0309 52.3417 9.17748L51.6024 10.1112C47.6129 14.9231 42.9223 19.104 37.6868 22.5201C37.6868 22.5201 36.1063 23.7948 35.265 23.8139C34.5576 23.8299 34.2422 23.2339 34.838 22.3799L33.3722 19.0721C33.3722 19.0721 29.558 21.5705 30.2972 25.9617C30.6095 27.8164 32.3525 29.1357 34.2039 28.8011C35.1503 28.6322 36.3198 28.1701 37.7505 27.2237L40.3826 25.5029C45.6181 22.0804 50.3119 17.8867 54.2982 13.0684L55.2032 11.9754C56.567 10.4235 57.1789 9.14562 57.386 8.13544C57.7046 6.58989 56.7901 5.07941 55.3179 4.53767Z" fill="#22D3EE"/>
</g>
<path d="M7.86648 25.2386C6.59375 25.2386 5.46023 25.0199 4.46591 24.5824C3.47727 24.1392 2.69602 23.5312 2.12216 22.7585C1.55398 21.9801 1.26136 21.0824 1.24432 20.0653H4.96023C4.98295 20.4915 5.12216 20.8665 5.37784 21.1903C5.6392 21.5085 5.9858 21.7557 6.41761 21.9318C6.84943 22.108 7.33523 22.196 7.875 22.196C8.4375 22.196 8.93466 22.0966 9.36648 21.8977C9.7983 21.6989 10.1364 21.4233 10.3807 21.071C10.625 20.7187 10.7472 20.3125 10.7472 19.8523C10.7472 19.3864 10.6165 18.9744 10.3551 18.6165C10.0994 18.2528 9.73011 17.9687 9.24716 17.7642C8.76989 17.5597 8.2017 17.4574 7.54261 17.4574H5.91477V14.7472H7.54261C8.09943 14.7472 8.59091 14.6506 9.01705 14.4574C9.44886 14.2642 9.78409 13.9972 10.0227 13.6562C10.2614 13.3097 10.3807 12.9062 10.3807 12.446C10.3807 12.0085 10.2756 11.625 10.0653 11.2955C9.8608 10.9602 9.57102 10.6989 9.19602 10.5114C8.8267 10.3239 8.39489 10.2301 7.90057 10.2301C7.40057 10.2301 6.94318 10.321 6.52841 10.5028C6.11364 10.679 5.78125 10.9318 5.53125 11.2614C5.28125 11.5909 5.14773 11.9773 5.13068 12.4205H1.59375C1.6108 11.4148 1.89773 10.5284 2.45455 9.76136C3.01136 8.99432 3.76136 8.39489 4.70455 7.96307C5.65341 7.52557 6.72443 7.30682 7.91761 7.30682C9.12216 7.30682 10.1761 7.52557 11.0795 7.96307C11.983 8.40057 12.6847 8.99148 13.1847 9.73579C13.6903 10.4744 13.9403 11.304 13.9347 12.2244C13.9403 13.2017 13.6364 14.017 13.0227 14.6705C12.4148 15.3239 11.6222 15.7386 10.6449 15.9148V16.0511C11.929 16.2159 12.9063 16.6619 13.5767 17.3892C14.2528 18.1108 14.5881 19.0142 14.5824 20.0994C14.5881 21.0938 14.3011 21.9773 13.7216 22.75C13.1477 23.5227 12.3551 24.1307 11.3438 24.5739C10.3324 25.017 9.1733 25.2386 7.86648 25.2386ZM23.9339 25.2386C23.0362 25.233 22.1697 25.0824 21.3345 24.7869C20.505 24.4915 19.7607 24.0114 19.1016 23.3466C18.4425 22.6818 17.9197 21.8011 17.5334 20.7045C17.1527 19.608 16.9624 18.2614 16.9624 16.6648C16.968 15.1989 17.1357 13.8892 17.4652 12.7358C17.8004 11.5767 18.2777 10.5937 18.897 9.78693C19.522 8.98011 20.2692 8.36648 21.1385 7.94602C22.0078 7.51989 22.9822 7.30682 24.0618 7.30682C25.2266 7.30682 26.255 7.53409 27.147 7.98864C28.0391 8.4375 28.755 9.0483 29.2947 9.82102C29.8402 10.5938 30.1697 11.4602 30.2834 12.4205H26.6442C26.5021 11.8125 26.2038 11.3352 25.7493 10.9886C25.2947 10.642 24.7322 10.4688 24.0618 10.4688C22.9254 10.4688 22.0618 10.9631 21.4709 11.9517C20.8857 12.9403 20.5874 14.2841 20.576 15.983H20.6953C20.9567 15.4659 21.3089 15.0256 21.7521 14.6619C22.201 14.2926 22.7095 14.0114 23.2777 13.8182C23.8516 13.6193 24.4567 13.5199 25.093 13.5199C26.1271 13.5199 27.0476 13.7642 27.8544 14.2528C28.6612 14.7358 29.2976 15.4006 29.7635 16.2472C30.2294 17.0937 30.4624 18.0625 30.4624 19.1534C30.4624 20.3352 30.1868 21.3864 29.6357 22.3068C29.0902 23.2273 28.326 23.9489 27.343 24.4716C26.3658 24.9886 25.2294 25.2443 23.9339 25.2386ZM23.9169 22.3409C24.4851 22.3409 24.9936 22.2045 25.4425 21.9318C25.8913 21.6591 26.2436 21.2898 26.4993 20.8239C26.755 20.358 26.8828 19.8352 26.8828 19.2557C26.8828 18.6761 26.755 18.1562 26.4993 17.696C26.2493 17.2358 25.9027 16.8693 25.4595 16.5966C25.0163 16.3239 24.5107 16.1875 23.9425 16.1875C23.5163 16.1875 23.1214 16.267 22.7578 16.4261C22.3999 16.5852 22.0845 16.8068 21.8118 17.0909C21.5447 17.375 21.3345 17.7045 21.1811 18.0795C21.0277 18.4489 20.951 18.8437 20.951 19.2642C20.951 19.8267 21.0788 20.3409 21.3345 20.8068C21.5959 21.2727 21.9482 21.6449 22.3913 21.9233C22.8402 22.2017 23.3487 22.3409 23.9169 22.3409Z" fill="black"/>
</svg>
